# Blender v2.78 (sub 0) OBJ File: '22.blend'
# www.blender.org
mtllib Halo_01.mtl
g Halo_Circle.010
v 0.000000 -0.250479 -4.513754
v -3.191707 -0.250479 -3.191707
v -4.513754 -0.250479 0.000000
v -3.191707 -0.250479 3.191707
v 0.000000 -0.250479 4.513754
v 3.191707 -0.250479 3.191706
v 4.513754 -0.250479 -0.000000
v 3.191707 -0.250479 -3.191706
v 0.000000 0.245361 -4.513754
v -3.191707 0.245361 -3.191707
v -4.513754 0.245361 0.000000
v -3.191707 0.245361 3.191707
v 0.000000 0.245361 4.513754
v 3.191707 0.245361 3.191706
v 4.513754 0.245361 -0.000000
v 3.191707 0.245361 -3.191706
v 0.000000 -0.182684 -4.113340
v -2.908571 -0.182684 -2.908571
v -4.113340 -0.182684 0.000000
v -2.908571 -0.182684 2.908571
v 0.000000 -0.182684 4.113340
v 2.908571 -0.182684 2.908570
v 4.113340 -0.182684 -0.000000
v 2.908571 -0.182684 -2.908570
v 0.000000 0.177566 -4.113340
v -2.908571 0.177566 -2.908571
v -4.113340 0.177566 0.000000
v -2.908571 0.177566 2.908571
v 0.000000 0.177566 4.113340
v 2.908571 0.177566 2.908570
v 4.113340 0.177566 -0.000000
v 2.908571 0.177566 -2.908570
v 3.241055 -0.002559 -3.241054
v 0.000000 -0.002559 -4.583544
v 3.241055 -0.002559 3.241054
v 4.583544 -0.002559 -0.000000
v -3.241055 -0.002559 3.241055
v 0.000000 -0.002559 4.583544
v -3.241055 -0.002559 -3.241055
v -4.583544 -0.002559 0.000000
v 2.854271 -0.002559 -2.854271
v 0.000000 -0.002559 -4.036549
v 2.854271 -0.002559 2.854271
v 4.036549 -0.002559 -0.000000
v -2.854271 -0.002559 2.854271
v 0.000000 -0.002559 4.036549
v -2.854271 -0.002559 -2.854271
v -4.036549 -0.002559 0.000000
v -4.313547 0.266351 0.000000
v -3.050139 0.266351 -3.050139
v -3.050139 0.266351 3.050139
v 0.000000 0.266351 4.313547
v 3.050139 0.266351 3.050138
v 4.313547 0.266351 -0.000000
v 3.050139 0.266351 -3.050138
v 0.000000 0.266351 -4.313547
v -3.050139 -0.283370 -3.050139
v -4.313547 -0.283370 0.000000
v -3.050139 -0.283370 3.050139
v 0.000000 -0.283370 4.313547
v 3.050139 -0.283370 3.050138
v 4.313547 -0.283370 -0.000000
v 3.050139 -0.283370 -3.050138
v 0.000000 -0.283370 -4.313547
vn 0.3704 0.2517 -0.8941
vn 0.8941 0.2517 0.3704
vn -0.3704 0.2517 0.8941
vn -0.8941 0.2517 -0.3704
vn 0.8941 0.2517 -0.3704
vn 0.3704 0.2517 0.8941
vn -0.8941 0.2517 0.3704
vn -0.3704 0.2517 -0.8941
vn -0.3561 0.3665 0.8596
vn -0.8596 0.3665 -0.3561
vn 0.3561 0.3665 -0.8596
vn 0.8596 0.3665 0.3561
vn -0.8596 0.3665 0.3561
vn -0.3561 0.3665 -0.8596
vn 0.8596 0.3665 -0.3561
vn 0.3561 0.3665 0.8596
vn 0.4417 -0.8783 0.1830
vn 0.3998 0.9015 0.1656
vn 0.4417 -0.8783 -0.1830
vn 0.3998 0.9015 -0.1656
vn 0.1830 -0.8783 -0.4417
vn 0.1656 0.9015 -0.3998
vn -0.1830 -0.8783 -0.4417
vn -0.1656 0.9015 -0.3998
vn -0.4417 -0.8783 -0.1830
vn -0.3998 0.9015 -0.1656
vn -0.4417 -0.8783 0.1830
vn -0.3998 0.9015 0.1656
vn -0.1830 -0.8783 0.4417
vn 0.1830 -0.8783 0.4417
vn -0.1656 0.9015 0.3998
vn 0.1656 0.9015 0.3998
vn -0.3704 -0.2517 -0.8941
vn -0.8941 -0.2517 0.3704
vn 0.3704 -0.2517 0.8941
vn 0.8941 -0.2517 -0.3704
vn -0.8941 -0.2517 -0.3704
vn -0.3704 -0.2517 0.8941
vn 0.8941 -0.2517 0.3704
vn 0.3704 -0.2517 -0.8941
vn 0.3561 -0.3665 0.8596
vn 0.8596 -0.3665 -0.3561
vn -0.3561 -0.3665 -0.8596
vn -0.8596 -0.3665 0.3561
vn 0.8596 -0.3665 0.3561
vn 0.3561 -0.3665 -0.8596
vn -0.8596 -0.3665 -0.3561
vn -0.3561 -0.3665 0.8596
vn -0.0432 0.9936 -0.1042
vn 0.0432 0.9936 -0.1042
vn 0.1042 0.9936 -0.0432
vn 0.1042 0.9936 0.0432
vn 0.0432 0.9936 0.1042
vn -0.0432 0.9936 0.1042
vn -0.1042 0.9936 0.0432
vn -0.1042 0.9936 -0.0432
vn -0.0670 -0.9846 -0.1617
vn 0.0670 -0.9846 -0.1617
vn 0.1617 -0.9846 -0.0670
vn 0.1617 -0.9846 0.0670
vn 0.0670 -0.9846 0.1617
vn -0.0670 -0.9846 0.1617
vn -0.1617 -0.9846 0.0670
vn -0.1617 -0.9846 -0.0670
usemtl FFEB3B
s off
f 34//1 9//1 16//1 33//1
f 36//2 15//2 14//2 35//2
f 38//3 13//3 12//3 37//3
f 40//4 11//4 10//4 39//4
f 33//5 16//5 15//5 36//5
f 35//6 14//6 13//6 38//6
f 37//7 12//7 11//7 40//7
f 39//8 10//8 9//8 34//8
f 42//9 41//9 32//9 25//9
f 44//10 43//10 30//10 31//10
f 46//11 45//11 28//11 29//11
f 48//12 47//12 26//12 27//12
f 41//13 44//13 31//13 32//13
f 43//14 46//14 29//14 30//14
f 45//15 48//15 27//15 28//15
f 47//16 42//16 25//16 26//16
f 58//17 57//17 18//17 19//17
f 50//18 49//18 27//18 26//18
f 59//19 58//19 19//19 20//19
f 49//20 51//20 28//20 27//20
f 60//21 59//21 20//21 21//21
f 51//22 52//22 29//22 28//22
f 61//23 60//23 21//23 22//23
f 52//24 53//24 30//24 29//24
f 62//25 61//25 22//25 23//25
f 53//26 54//26 31//26 30//26
f 63//27 62//27 23//27 24//27
f 54//28 55//28 32//28 31//28
f 64//29 63//29 24//29 17//29
f 57//30 64//30 17//30 18//30
f 55//31 56//31 25//31 32//31
f 56//32 50//32 26//32 25//32
f 2//33 39//33 34//33 1//33
f 4//34 37//34 40//34 3//34
f 6//35 35//35 38//35 5//35
f 8//36 33//36 36//36 7//36
f 3//37 40//37 39//37 2//37
f 5//38 38//38 37//38 4//38
f 7//39 36//39 35//39 6//39
f 1//40 34//40 33//40 8//40
f 18//41 17//41 42//41 47//41
f 20//42 19//42 48//42 45//42
f 22//43 21//43 46//43 43//43
f 24//44 23//44 44//44 41//44
f 19//45 18//45 47//45 48//45
f 21//46 20//46 45//46 46//46
f 23//47 22//47 43//47 44//47
f 17//48 24//48 41//48 42//48
f 9//49 10//49 50//49 56//49
f 16//50 9//50 56//50 55//50
f 15//51 16//51 55//51 54//51
f 14//52 15//52 54//52 53//52
f 13//53 14//53 53//53 52//53
f 12//54 13//54 52//54 51//54
f 11//55 12//55 51//55 49//55
f 10//56 11//56 49//56 50//56
f 2//57 1//57 64//57 57//57
f 1//58 8//58 63//58 64//58
f 8//59 7//59 62//59 63//59
f 7//60 6//60 61//60 62//60
f 6//61 5//61 60//61 61//61
f 5//62 4//62 59//62 60//62
f 4//63 3//63 58//63 59//63
f 3//64 2//64 57//64 58//64
