# Blender v2.78 (sub 0) OBJ File: '7.blend'
# www.blender.org
mtllib Rock_Band_Poster_01.mtl
o Rock_Band_Poster_Plane.002
v 2.152783 9.455195 -0.120532
v -2.152783 9.455195 -0.120532
v 2.417432 12.345089 -0.120532
v -1.695493 13.618560 -0.120532
v 0.258537 7.935324 -0.120532
v -2.120380 7.935324 -0.120532
v -1.911183 9.038716 -0.120532
v 0.637197 8.707627 -0.120532
v 0.006477 10.709974 -0.143882
v -1.701754 10.709974 -0.143882
v 0.386337 11.442629 -0.143882
v -1.520325 11.910677 -0.143882
v 2.025839 10.650181 -0.143882
v 0.781520 10.650181 -0.143882
v 2.102323 11.257277 -0.143882
v 0.666303 11.396532 -0.143882
v 2.228926 10.286664 -0.120532
v -2.040053 10.481530 -0.120532
v 1.437133 9.792829 -0.120532
v 1.417054 9.573568 -0.120532
v -1.392117 9.573568 -0.120532
v -1.318566 10.243201 -0.120532
v 2.168170 9.623223 -0.120532
v -2.096418 9.968362 -0.120532
v 1.427094 9.683199 -0.120532
v -1.355342 9.908385 -0.120532
v 0.285854 11.248823 -0.143882
v -1.568318 11.593060 -0.143882
v 2.084997 11.119753 -0.143882
v 0.701565 11.207925 -0.143882
v -2.613158 12.518976 -0.143882
v -2.692697 11.992584 -0.143882
v 2.938558 11.460284 -0.143882
v 2.916251 11.283226 -0.143882
v 0.156525 11.335168 -0.137032
v 0.498007 11.342998 -0.137032
v -0.106120 10.289169 -0.137032
v 1.350076 9.968693 -0.137032
v 0.151987 4.743592 -0.120532
v -3.697247 8.733255 -0.120532
v -4.591728 0.473717 -0.120532
v 1.816406 8.277294 -0.120532
v 2.526362 1.831232 -0.120532
v -1.881585 11.924296 -0.120532
v 2.317507 11.612271 -0.120532
v -2.598589 11.050973 -0.120532
v -2.484062 12.093679 -0.120532
v 2.153017 12.037631 -0.128633
v 1.365908 12.659459 -0.128633
v 3.696636 12.961164 -0.128633
v 2.909528 13.582993 -0.128633
v 1.493306 12.430907 -0.128632
v 0.579296 12.844181 -0.128632
v 2.768116 13.699975 -0.128633
v 1.854106 14.113249 -0.128632
v 0.665019 12.770239 -0.128632
v -0.379956 13.035296 -0.128632
v 1.774755 14.353232 -0.128632
v 0.729780 14.618290 -0.128632
v -0.120147 13.061112 -0.128632
v -1.054752 13.105694 -0.128632
v 0.549712 14.599474 -0.128632
v -0.384893 14.644058 -0.128632
v -0.887935 13.154031 -0.128632
v -1.800212 13.007964 -0.128632
v -0.551894 14.776365 -0.128632
v -1.464172 14.630298 -0.128632
v -1.667827 11.344224 -0.128632
v -2.106473 11.346189 -0.128632
v -1.597195 13.347960 -0.128632
v -2.156090 13.118324 -0.128632
v -1.663379 5.558366 -0.133393
v -0.237352 2.400085 -0.133393
v -3.919386 6.188830 -0.133393
v -4.835430 0.198826 -0.133393
v 0.537666 7.538011 -0.133393
v 2.817111 2.547321 -0.133393
v 1.382127 5.689119 -0.133393
v 1.972649 4.396214 -0.133393
v 4.987176 0.019525 -0.111851
v -4.973493 0.019525 -0.111850
v 4.987176 14.928373 -0.111851
v -4.973493 14.928373 -0.111850
v 4.987176 6.692068 -0.133393
v 4.987176 7.944511 -0.133393
v -3.144465 4.465120 -0.150150
v -1.914718 4.919361 -0.150150
v -3.387908 3.434641 -0.150150
v -2.485605 2.687507 -0.150150
v -0.467093 4.011700 -0.150150
v -0.428824 2.808114 -0.150150
v -3.958279 9.071202 -0.191858
v -2.154478 7.992769 -0.191858
v -4.105594 4.619944 -0.191858
v -2.751218 2.902076 -0.191858
v -3.094337 4.741870 -0.191858
v 0.571387 7.934132 -0.123912
v 3.484759 2.462989 -0.123912
v 2.592527 8.509304 -0.123912
v 4.756225 3.842655 -0.123912
v 2.352969 3.954926 -0.123912
v 3.528365 5.461235 -0.123912
v 4.987176 4.611187 -0.123912
v 4.987176 7.309559 -0.123912
v -4.591728 0.025423 -0.120532
v 3.542451 0.025423 -0.120532
v -4.940396 2.358408 -0.191858
v -4.973493 2.690603 -0.191858
v -4.973493 6.693013 -0.191858
v -4.973493 4.939358 -0.191858
v -2.132699 10.879340 -0.120532
v -2.043805 11.688673 -0.120532
v -2.446015 11.198773 -0.120532
v -2.381770 11.783691 -0.120532
v -3.933448 1.204881 -0.181365
v -4.342268 1.204881 -0.181365
v -3.866586 1.464597 -0.181365
v -4.310333 1.630512 -0.181365
v -3.114545 1.543450 -0.181365
v -3.523366 1.543450 -0.181365
v -3.047683 1.803166 -0.181365
v -3.491431 1.969082 -0.181365
v 1.057082 0.019525 -0.111851
v 0.006842 0.019525 -0.111851
v -2.483325 0.019525 -0.111851
v -3.814970 14.928373 -0.111851
v 0.006842 14.928373 -0.111851
v 3.789164 14.928373 -0.111851
vn -0.0000 -0.0000 -1.0000
vn 0.0208 0.0000 -0.9998
usemtl 1A1A1A
s off
f 27//1 28//1 12//1 11//1
f 29//1 30//1 16//1 15//1
f 9//1 10//1 28//1 27//1
f 13//1 14//1 30//1 29//1
f 30//1 27//1 11//1 16//1
f 12//1 28//1 32//1 31//1
f 29//1 15//1 33//1 34//1
f 48//1 49//1 51//1 50//1
f 52//1 53//1 55//1 54//1
f 56//1 57//1 59//1 58//1
f 60//1 61//1 63//1 62//1
f 64//1 65//1 67//1 66//1
f 68//1 69//1 71//1 70//1
f 115//1 116//1 118//1 117//1
f 119//1 120//1 122//1 121//1
usemtl DD9944
f 45//1 44//1 4//1 3//1
f 7//1 8//1 5//1 6//1
f 2//1 1//1 8//1 7//1
f 1//1 2//1 21//1 20//1
f 24//1 18//1 22//1 26//1
f 23//1 1//1 20//1 25//1
f 18//1 17//1 19//1 22//1
f 17//1 23//1 25//1 19//1
f 2//1 24//1 26//1 21//1
f 6//1 5//1 39//1
f 17//1 18//1 44//1 45//1
f 47//1 44//1 112//1 114//1
f 88//1 86//1 87//1 89//1
f 89//1 87//1 90//1 91//1
f 44//1 18//1 111//1 112//1
f 18//1 46//1 113//1 111//1
f 46//1 47//1 114//1 113//1
usemtl F44336
f 20//1 21//1 26//1 25//1
f 36//1 38//1 37//1 35//1
f 74//1 72//1 73//1 75//1
f 73//1 72//1 76//1 77//1
f 77//2 76//2 78//2 79//2
usemtl FFFFFF
f 25//1 26//1 22//1 19//1
f 41//1 43//1 106//1 105//1
usemtl 039BE5
f 40//1 6//1 39//1 41//1
f 43//1 39//1 5//1 42//1
f 43//1 41//1 39//1
f 101//1 97//1 99//1 102//1
f 98//1 101//1 102//1 100//1
f 100//1 102//1 104//1 103//1
f 107//1 108//1 94//1 96//1 95//1
f 110//1 109//1 92//1 93//1 94//1
f 108//1 110//1 94//1
usemtl 795548
f 79//1 78//1 85//1 84//1
usemtl 00BCD4
f 125//1 81//1 83//1 126//1
f 123//1 124//1 127//1 128//1
usemtl FFCC88
f 112//1 111//1 113//1 114//1
usemtl 009688
f 80//1 123//1 128//1 82//1
f 124//1 125//1 126//1 127//1
